<svg xmlns="http://www.w3.org/2000/svg" width="64" height="64"><defs><filter id="blur" width="200%" height="200%"><feGaussianBlur in="SourceAlpha" stdDeviation="3"/><feOffset dy="4" result="offsetblur"/><feComponentTransfer><feFuncA type="linear" slope=".05"/></feComponentTransfer><feMerge><feMergeNode/><feMergeNode in="SourceGraphic"/></feMerge></filter><style>@keyframes am-weather-cloud-2{0%{transform:translate(0)}50%{transform:translate(2px)}to{transform:translate(0)}}@keyframes am-weather-moon{0%{transform:rotate(0deg)}50%{transform:rotate(15deg)}to{transform:rotate(0deg)}}@keyframes am-weather-moon-star-1{0%{opacity:0}to{opacity:1}}@keyframes am-weather-moon-star-2{0%{opacity:0}to{opacity:1}}</style></defs><g filter="url('#blur')" id="cloudy-night-2"><path fill="orange" stroke-miterlimit="10" d="M3.3 1.5 4 2.7l1.2.6L4 4l-.7 1.2L2.7 4l-1.2-.7 1.2-.6z" transform="matrix(.8 0 0 .8 36 14)" style="-ms-animation-name:am-weather-moon-star-1;-ms-animation-delay:3s;-ms-animation-duration:5s;-ms-animation-timing-function:linear;-ms-animation-iteration-count:1;animation-name:am-weather-moon-star-1;animation-duration:5s;animation-timing-function:linear;animation-iteration-count:1;animation-delay:3s"/><path fill="orange" stroke-miterlimit="10" transform="matrix(.8 0 0 .8 52 22)" d="M3.3 1.5 4 2.7l1.2.6L4 4l-.7 1.2L2.7 4l-1.2-.7 1.2-.6z" style="-ms-animation-name:am-weather-moon-star-2;-ms-animation-delay:5s;-ms-animation-duration:4s;-ms-animation-timing-function:linear;-ms-animation-iteration-count:1;animation-name:am-weather-moon-star-2;animation-duration:4s;animation-timing-function:linear;animation-iteration-count:1;animation-delay:5s"/><path d="M14.5 13.2c0-3.7 2-6.9 5-8.7-1.5-.9-3.2-1.3-5-1.3-5.5 0-10 4.5-10 10s4.5 10 10 10c1.8 0 3.5-.5 5-1.3-3-1.7-5-5-5-8.7z" fill="orange" stroke="orange" stroke-linejoin="round" stroke-width="2" transform="matrix(.8 0 0 .8 36 14)" style="-ms-animation-name:am-weather-moon;-ms-animation-duration:6s;-ms-animation-timing-function:linear;-ms-animation-iteration-count:infinite;-webkit-transform-origin:12.5px 15.15px 0;-moz-transform-origin:12.5px 15.15px 0;-ms-transform-origin:12.5px 15.15px 0;transform-origin:12.5px 15.15px 0;animation-name:am-weather-moon;animation-duration:6s;animation-timing-function:linear;animation-iteration-count:infinite"/><path d="M47.7 35.4c0-4.6-3.7-8.2-8.2-8.2-1 0-1.9.2-2.8.5-.3-3.4-3.1-6.2-6.6-6.2-3.7 0-6.7 3-6.7 6.7 0 .8.2 1.6.4 2.3-.3-.1-.7-.1-1-.1-3.7 0-6.7 3-6.7 6.7 0 3.6 2.9 6.6 6.5 6.7h17.2c4.4-.5 7.9-4 7.9-8.4z" fill="#91C0F8" stroke="#fff" stroke-linejoin="round" stroke-width="1.2" transform="translate(0 -1)" style="animation-name:am-weather-cloud-2;animation-duration:3s;animation-timing-function:linear;animation-iteration-count:infinite"/></g></svg>