<svg xmlns="http://www.w3.org/2000/svg" width="64" height="64"><defs><filter id="blur" width="200%" height="200%"><feGaussianBlur in="SourceAlpha" stdDeviation="3"/><feOffset dy="4" result="offsetblur"/><feComponentTransfer><feFuncA type="linear" slope=".05"/></feComponentTransfer><feMerge><feMergeNode/><feMergeNode in="SourceGraphic"/></feMerge></filter><style>@keyframes am-weather-cloud-1{0%{transform:translate(-5px)}50%{transform:translate(10px)}to{transform:translate(-5px)}}@keyframes am-weather-cloud-2{0%{transform:translate(0)}50%{transform:translate(2px)}to{transform:translate(0)}}.am-weather-cloud-2{animation-name:am-weather-cloud-2;animation-duration:3s;animation-timing-function:linear;animation-iteration-count:infinite}@keyframes am-weather-stroke{0%{transform:translate(0)}2%{transform:translate(.3px)}4%{transform:translate(0)}6%{transform:translate(.5px,.4px)}8%{transform:translate(0)}10%{transform:translate(.3px)}12%{transform:translate(0)}14%{transform:translate(.3px)}16%{transform:translate(0)}18%{transform:translate(.3px)}20%{transform:translate(0)}22%{transform:translate(1px)}24%{transform:translate(0)}26%{transform:translate(-1px)}28%{transform:translate(0)}40%{fill:orange;transform:translate(0)}65%{fill:#fff;transform:translate(-1px,5px)}61%{fill:orange}to{transform:translate(0)}}</style></defs><g filter="url('#blur')" id="thunder"><path d="M47.7 35.4c0-4.6-3.7-8.2-8.2-8.2-1 0-1.9.2-2.8.5-.3-3.4-3.1-6.2-6.6-6.2-3.7 0-6.7 3-6.7 6.7 0 .8.2 1.6.4 2.3-.3-.1-.7-.1-1-.1-3.7 0-6.7 3-6.7 6.7 0 3.6 2.9 6.6 6.5 6.7h17.2c4.4-.5 7.9-4 7.9-8.4z" fill="#91C0F8" stroke="#fff" stroke-linejoin="round" stroke-width="1.2" transform="matrix(.6 0 0 .6 10 4)" style="animation-name:am-weather-cloud-1;animation-duration:7s;animation-timing-function:linear;animation-iteration-count:infinite"/><path d="M47.7 34.4c0-4.6-3.7-8.2-8.2-8.2-1 0-1.9.2-2.8.5-.3-3.4-3.1-6.2-6.6-6.2-3.7 0-6.7 3-6.7 6.7 0 .8.2 1.6.4 2.3-.3-.1-.7-.1-1-.1-3.7 0-6.7 3-6.7 6.7 0 3.6 2.9 6.6 6.5 6.7h17.2c4.4-.5 7.9-4 7.9-8.4z" fill="#57A0EE" stroke="#fff" stroke-linejoin="round" stroke-width="1.2"/><path fill="orange" stroke="#fff" style="animation-name:am-weather-stroke;animation-duration:1.11s;animation-timing-function:linear;animation-iteration-count:infinite" d="M14.3-2.9h6.2l-4.1 7.2h3.9l-8.8 10.3 3.4-7.7h-3.8z" transform="matrix(1.2 0 0 1.2 11 38)"/></g></svg>